<?xml version="1.0" encoding="UTF-8" standalone="no"?>
<!-- Created with Inkscape (http://www.inkscape.org/) -->

<svg
   xmlns:dc="http://purl.org/dc/elements/1.1/"
   xmlns:cc="http://creativecommons.org/ns#"
   xmlns:rdf="http://www.w3.org/1999/02/22-rdf-syntax-ns#"
   xmlns:svg="http://www.w3.org/2000/svg"
   xmlns="http://www.w3.org/2000/svg"
   xmlns:xlink="http://www.w3.org/1999/xlink"
   xmlns:sodipodi="http://sodipodi.sourceforge.net/DTD/sodipodi-0.dtd"
   xmlns:inkscape="http://www.inkscape.org/namespaces/inkscape"
   width="48"
   height="48"
   viewBox="0 0 12.7 12.7"
   version="1.1"
   id="svg8"
   inkscape:version="0.92.3 (2405546, 2018-03-11)"
   sodipodi:docname="guh_logo_90s.svg">
  <defs
     id="defs2">
    <marker
       inkscape:stockid="Arrow1Lstart"
       orient="auto"
       refY="0.0"
       refX="0.0"
       id="Arrow1Lstart"
       style="overflow:visible"
       inkscape:isstock="true">
      <path
         id="path1457"
         d="M 0.0,0.0 L 5.0,-5.0 L -12.5,0.0 L 5.0,5.0 L 0.0,0.0 z "
         style="fill-rule:evenodd;stroke:#000000;stroke-width:1pt;stroke-opacity:1;fill:#000000;fill-opacity:1"
         transform="scale(0.8) translate(12.5,0)" />
    </marker>
    <linearGradient
       id="linearGradient1441"
       inkscape:collect="always">
      <stop
         id="stop1437"
         offset="0"
         style="stop-color:#bee6f5;stop-opacity:1" />
      <stop
         id="stop1439"
         offset="1"
         style="stop-color:#e0fff6;stop-opacity:1" />
    </linearGradient>
    <linearGradient
       inkscape:collect="always"
       id="linearGradient1405">
      <stop
         style="stop-color:#fbed00;stop-opacity:1"
         offset="0"
         id="stop1401" />
      <stop
         style="stop-color:#fffbb3;stop-opacity:1"
         offset="1"
         id="stop1403" />
    </linearGradient>
    <linearGradient
       inkscape:collect="always"
       xlink:href="#linearGradient1405"
       id="linearGradient1411"
       x1="-110.83888"
       y1="273.69077"
       x2="-106.61243"
       y2="268.95636"
       gradientUnits="userSpaceOnUse"
       gradientTransform="translate(-0.32950655,0.7788907)" />
    <linearGradient
       inkscape:collect="always"
       xlink:href="#linearGradient1441"
       id="linearGradient1435"
       x1="0.0018806873"
       y1="288.42465"
       x2="8.0301123"
       y2="288.42465"
       gradientUnits="userSpaceOnUse"
       gradientTransform="matrix(0.87828273,0,0,0.88438542,219.32723,-49.847536)" />
  </defs>
  <sodipodi:namedview
     id="base"
     pagecolor="#ffffff"
     bordercolor="#666666"
     borderopacity="1.0"
     inkscape:pageopacity="0.0"
     inkscape:pageshadow="2"
     inkscape:zoom="11.2"
     inkscape:cx="-4.344153"
     inkscape:cy="15.774052"
     inkscape:document-units="mm"
     inkscape:current-layer="layer1"
     showgrid="false"
     units="px"
     inkscape:window-width="1870"
     inkscape:window-height="998"
     inkscape:window-x="25"
     inkscape:window-y="57"
     inkscape:window-maximized="0" />
  <metadata
     id="metadata5">
    <rdf:RDF>
      <cc:Work
         rdf:about="">
        <dc:format>image/svg+xml</dc:format>
        <dc:type
           rdf:resource="http://purl.org/dc/dcmitype/StillImage" />
        <dc:title></dc:title>
      </cc:Work>
    </rdf:RDF>
  </metadata>
  <g
     inkscape:label="Layer 1"
     inkscape:groupmode="layer"
     id="layer1"
     transform="translate(0,-284.3)">
    <ellipse
       style="fill:url(#linearGradient1411);fill-opacity:1;stroke:#000000;stroke-width:0.21803993;stroke-linecap:round;stroke-linejoin:miter;stroke-miterlimit:4;stroke-dasharray:none;stroke-opacity:1"
       id="path1368"
       ry="2.821913"
       rx="4.2347207"
       cy="271.95938"
       cx="-109.30247"
       transform="rotate(-22.930594)" />
    <path
       style="fill:#fdfbc4;fill-opacity:1;stroke:#000000;stroke-width:0.16782439;stroke-linecap:round;stroke-linejoin:miter;stroke-miterlimit:4;stroke-dasharray:none;stroke-opacity:1"
       id="path1380"
       sodipodi:type="arc"
       sodipodi:cx="10.345649"
       sodipodi:cy="-289.66153"
       sodipodi:rx="1.8195246"
       sodipodi:ry="2.0014772"
       sodipodi:start="0.042570675"
       sodipodi:end="0.030264009"
       sodipodi:open="true"
       d="m 12.163525,-289.57635 a 1.8195246,2.0014772 0 0 1 -1.889718,1.91474 1.8195246,2.0014772 0 0 1 -1.7464765,-2.07279 1.8195246,2.0014772 0 0 1 1.8789715,-1.92749 1.8195246,2.0014772 0 0 1 1.758038,2.06092"
       transform="scale(1,-1)" />
    <path
       style="fill:#000000;fill-opacity:1;stroke:#000000;stroke-width:0.18520832;stroke-linecap:round;stroke-linejoin:miter;stroke-miterlimit:4;stroke-dasharray:none;stroke-opacity:1"
       id="path1421"
       sodipodi:type="arc"
       sodipodi:cx="9.9454985"
       sodipodi:cy="289.10507"
       sodipodi:rx="0.17717634"
       sodipodi:ry="0.30710566"
       sodipodi:start="0.042570675"
       sodipodi:end="0.030264009"
       sodipodi:open="true"
       d="m 10.122514,289.11814 a 0.17717634,0.30710566 0 0 1 -0.1840111,0.2938 0.17717634,0.30710566 0 0 1 -0.1700633,-0.31805 0.17717634,0.30710566 0 0 1 0.182965,-0.29575 0.17717634,0.30710566 0 0 1 0.1711894,0.31622" />
    <path
       d="m 11.414719,289.12995 a 0.17717634,0.30710566 0 0 1 -0.184011,0.2938 0.17717634,0.30710566 0 0 1 -0.170064,-0.31805 0.17717634,0.30710566 0 0 1 0.182965,-0.29575 0.17717634,0.30710566 0 0 1 0.17119,0.31623"
       sodipodi:open="true"
       sodipodi:end="0.030264009"
       sodipodi:start="0.042570675"
       sodipodi:ry="0.30710566"
       sodipodi:rx="0.17717634"
       sodipodi:cy="289.11688"
       sodipodi:cx="11.237703"
       sodipodi:type="arc"
       id="path1423"
       style="fill:#000000;fill-opacity:1;stroke:#000000;stroke-width:0.18520832;stroke-linecap:round;stroke-linejoin:miter;stroke-miterlimit:4;stroke-dasharray:none;stroke-opacity:1" />
    <path
       style="fill:none;stroke:#000000;stroke-width:0.1984375;stroke-linecap:round;stroke-linejoin:miter;stroke-opacity:1;stroke-miterlimit:4;stroke-dasharray:none"
       d="m 9.5197979,290.06238 c 0,0 0.334087,0.70158 1.1024871,0.70158 0.785105,-0.11693 1.052374,-0.70158 1.052374,-0.70158"
       id="path1425"
       inkscape:connector-curvature="0" />
    <path
       style="fill:url(#linearGradient1435);fill-opacity:1;stroke:#000000;stroke-width:0.16322942;stroke-linecap:round;stroke-linejoin:miter;stroke-miterlimit:4;stroke-dasharray:none;stroke-opacity:1"
       id="path1427"
       sodipodi:type="arc"
       sodipodi:cx="222.85451"
       sodipodi:cy="205.23091"
       sodipodi:rx="3.4441884"
       sodipodi:ry="1.5460294"
       sodipodi:start="0.042570675"
       sodipodi:end="0.030264009"
       sodipodi:open="true"
       d="m 226.29558,205.29671 a 3.4441884,1.5460294 0 0 1 -3.57706,1.47903 3.4441884,1.5460294 0 0 1 -3.30592,-1.60112 3.4441884,1.5460294 0 0 1 3.55672,-1.48888 3.4441884,1.5460294 0 0 1 3.3278,1.59195"
       transform="matrix(0.71764747,0.69640656,-0.76417063,0.64501414,0,0)" />
    <path
       style="fill:none;stroke:#000000;stroke-width:0.50031698;stroke-linecap:round;stroke-linejoin:miter;stroke-miterlimit:4;stroke-dasharray:none;stroke-opacity:1"
       d="m 2.8752074,291.38954 c 0,0 1.4131526,0.2723 2.2491157,1.59205 0.7464071,1.17838 0.6204458,2.83031 0.6204458,2.83031"
       id="path1447"
       inkscape:connector-curvature="0"
       sodipodi:nodetypes="csc" />
    <path
       sodipodi:nodetypes="csc"
       inkscape:connector-curvature="0"
       id="path1449"
       d="m 5.5058106,290.1879 c 0,0 1.3624652,0.24949 2.1684438,1.45863 0.7196347,1.07963 0.5981915,2.59315 0.5981915,2.59315"
       style="fill:none;stroke:#000000;stroke-width:0.47022864;stroke-linecap:round;stroke-linejoin:miter;stroke-miterlimit:4;stroke-dasharray:none;stroke-opacity:1" />
    <path
       style="fill:none;stroke:#000000;stroke-width:0.26458332px;stroke-linecap:butt;stroke-linejoin:miter;stroke-opacity:1"
       d="m 9.5942583,287.87719 c 0,0 0.028534,-0.85127 -1.2365031,-1.17032"
       id="path1451"
       inkscape:connector-curvature="0" />
    <path
       inkscape:connector-curvature="0"
       id="path1453"
       d="m 11.087666,287.79756 c 0,0 0.274246,-0.8064 1.570384,-0.65765"
       style="fill:none;stroke:#000000;stroke-width:0.26458332px;stroke-linecap:butt;stroke-linejoin:miter;stroke-opacity:1" />
    <path
       style="fill:none;stroke:#000000;stroke-width:0.13229167;stroke-linecap:round;stroke-linejoin:miter;stroke-opacity:0.18571429;stroke-miterlimit:4;stroke-dasharray:none"
       d="M 5.5187336,290.013 2.6058779,286.9941"
       id="path1455"
       inkscape:connector-curvature="0" />
  </g>
</svg>
